<?xml version="1.0" encoding="UTF-8" standalone="no"?>
<!DOCTYPE svg PUBLIC "-//W3C//DTD SVG 1.1//EN"
 "http://www.w3.org/Graphics/SVG/1.1/DTD/svg11.dtd">
<!-- Generated by graphviz version 2.38.0 (20140413.2041)
 -->
<!-- Title: flow Pages: 1 -->
<svg width="192pt" height="451pt"
 viewBox="0.00 0.00 192.19 451.00" xmlns="http://www.w3.org/2000/svg" xmlns:xlink="http://www.w3.org/1999/xlink">
<g id="graph0" class="graph" transform="scale(1 1) rotate(0) translate(4 447)">
<title>flow</title>
<polygon fill="white" stroke="none" points="-4,4 -4,-447 188.193,-447 188.193,4 -4,4"/>
<!-- dot1 -->
<g id="node1" class="node"><title>dot1</title>
<ellipse fill="none" stroke="red" cx="56.6967" cy="-425" rx="27" ry="18"/>
<text text-anchor="middle" x="56.6967" y="-421.3" font-family="Times New Roman,serif" font-size="14.00">...</text>
</g>
<!-- (u,x) -->
<g id="node5" class="node"><title>(u,x)</title>
<ellipse fill="none" stroke="red" cx="56.6967" cy="-352" rx="27.8951" ry="18"/>
<text text-anchor="middle" x="56.6967" y="-348.3" font-family="Times New Roman,serif" font-size="14.00">(u,x)</text>
</g>
<!-- dot1&#45;&gt;(u,x) -->
<g id="edge1" class="edge"><title>dot1&#45;&gt;(u,x)</title>
<path fill="none" stroke="red" d="M56.6967,-406.813C56.6967,-398.789 56.6967,-389.047 56.6967,-380.069"/>
<polygon fill="red" stroke="red" points="60.1968,-380.029 56.6967,-370.029 53.1968,-380.029 60.1968,-380.029"/>
</g>
<!-- dot4 -->
<g id="node2" class="node"><title>dot4</title>
<ellipse fill="none" stroke="red" cx="130.697" cy="-18" rx="27" ry="18"/>
<text text-anchor="middle" x="130.697" y="-14.3" font-family="Times New Roman,serif" font-size="14.00">...</text>
</g>
<!-- dot2 -->
<g id="node3" class="node"><title>dot2</title>
<ellipse fill="none" stroke="black" cx="37.6967" cy="-91" rx="27" ry="18"/>
<text text-anchor="middle" x="37.6967" y="-87.3" font-family="Times New Roman,serif" font-size="14.00">...</text>
</g>
<!-- dot3 -->
<g id="node4" class="node"><title>dot3</title>
<ellipse fill="none" stroke="black" cx="138.697" cy="-352" rx="27" ry="18"/>
<text text-anchor="middle" x="138.697" y="-348.3" font-family="Times New Roman,serif" font-size="14.00">...</text>
</g>
<!-- (v,x&#45;d) -->
<g id="node10" class="node"><title>(v,x&#45;d)</title>
<ellipse fill="none" stroke="black" cx="138.697" cy="-265" rx="35.9954" ry="18"/>
<text text-anchor="middle" x="138.697" y="-261.3" font-family="Times New Roman,serif" font-size="14.00">(v,x&#45;d)</text>
</g>
<!-- dot3&#45;&gt;(v,x&#45;d) -->
<g id="edge5" class="edge"><title>dot3&#45;&gt;(v,x&#45;d)</title>
<path fill="none" stroke="black" d="M138.697,-333.799C138.697,-322.163 138.697,-306.548 138.697,-293.237"/>
<polygon fill="black" stroke="black" points="142.197,-293.175 138.697,-283.175 135.197,-293.175 142.197,-293.175"/>
</g>
<!-- (u,x+1) -->
<g id="node6" class="node"><title>(u,x+1)</title>
<ellipse fill="none" stroke="red" cx="47.6967" cy="-265" rx="37.8943" ry="18"/>
<text text-anchor="middle" x="47.6967" y="-261.3" font-family="Times New Roman,serif" font-size="14.00">(u,x+1)</text>
</g>
<!-- (u,x)&#45;&gt;(u,x+1) -->
<g id="edge2" class="edge"><title>(u,x)&#45;&gt;(u,x+1)</title>
<path fill="none" stroke="red" d="M54.8754,-333.799C53.6433,-322.163 51.99,-306.548 50.5806,-293.237"/>
<polygon fill="red" stroke="red" points="54.0488,-292.751 49.5152,-283.175 47.0877,-293.488 54.0488,-292.751"/>
</g>
<!-- (u,x)&#45;&gt;(v,x&#45;d) -->
<g id="edge9" class="edge"><title>(u,x)&#45;&gt;(v,x&#45;d)</title>
<path fill="none" stroke="black" d="M70.98,-336.194C83.562,-323.152 102.09,-303.946 116.586,-288.92"/>
<polygon fill="black" stroke="black" points="119.322,-291.125 123.746,-281.498 114.284,-286.265 119.322,-291.125"/>
<text text-anchor="middle" x="110.197" y="-304.8" font-family="Times New Roman,serif" font-size="14.00">inf</text>
</g>
<!-- (v,x&#45;d+1) -->
<g id="node7" class="node"><title>(v,x&#45;d+1)</title>
<ellipse fill="none" stroke="red" cx="138.697" cy="-178" rx="45.4919" ry="18"/>
<text text-anchor="middle" x="138.697" y="-174.3" font-family="Times New Roman,serif" font-size="14.00">(v,x&#45;d+1)</text>
</g>
<!-- (u,x+1)&#45;&gt;(v,x&#45;d+1) -->
<g id="edge10" class="edge"><title>(u,x+1)&#45;&gt;(v,x&#45;d+1)</title>
<path fill="none" stroke="red" d="M64.3875,-248.41C78.4096,-235.312 98.6331,-216.422 114.443,-201.654"/>
<polygon fill="red" stroke="red" points="116.885,-204.163 121.803,-194.779 112.106,-199.048 116.885,-204.163"/>
<text text-anchor="middle" x="106.197" y="-217.8" font-family="Times New Roman,serif" font-size="14.00">inf</text>
</g>
<!-- (u,x+2) -->
<g id="node9" class="node"><title>(u,x+2)</title>
<ellipse fill="none" stroke="black" cx="37.6967" cy="-178" rx="37.8943" ry="18"/>
<text text-anchor="middle" x="37.6967" y="-174.3" font-family="Times New Roman,serif" font-size="14.00">(u,x+2)</text>
</g>
<!-- (u,x+1)&#45;&gt;(u,x+2) -->
<g id="edge3" class="edge"><title>(u,x+1)&#45;&gt;(u,x+2)</title>
<path fill="none" stroke="green" d="M45.673,-246.799C44.304,-235.163 42.467,-219.548 40.901,-206.237"/>
<polygon fill="green" stroke="green" points="44.3618,-205.698 39.7173,-196.175 37.4098,-206.516 44.3618,-205.698"/>
<text text-anchor="middle" x="57.1967" y="-217.8" font-family="Times New Roman,serif" font-size="14.00">(cut)</text>
</g>
<!-- (v,x&#45;d+2) -->
<g id="node8" class="node"><title>(v,x&#45;d+2)</title>
<ellipse fill="none" stroke="red" cx="130.697" cy="-91" rx="45.4919" ry="18"/>
<text text-anchor="middle" x="130.697" y="-87.3" font-family="Times New Roman,serif" font-size="14.00">(v,x&#45;d+2)</text>
</g>
<!-- (v,x&#45;d+1)&#45;&gt;(v,x&#45;d+2) -->
<g id="edge7" class="edge"><title>(v,x&#45;d+1)&#45;&gt;(v,x&#45;d+2)</title>
<path fill="none" stroke="red" d="M137.078,-159.799C135.983,-148.163 134.513,-132.548 133.26,-119.237"/>
<polygon fill="red" stroke="red" points="136.735,-118.803 132.313,-109.175 129.766,-119.459 136.735,-118.803"/>
</g>
<!-- (v,x&#45;d+2)&#45;&gt;dot4 -->
<g id="edge8" class="edge"><title>(v,x&#45;d+2)&#45;&gt;dot4</title>
<path fill="none" stroke="red" d="M130.697,-72.8129C130.697,-64.7895 130.697,-55.0475 130.697,-46.0691"/>
<polygon fill="red" stroke="red" points="134.197,-46.0288 130.697,-36.0288 127.197,-46.0289 134.197,-46.0288"/>
</g>
<!-- (u,x+2)&#45;&gt;dot2 -->
<g id="edge4" class="edge"><title>(u,x+2)&#45;&gt;dot2</title>
<path fill="none" stroke="black" d="M37.6967,-159.799C37.6967,-148.163 37.6967,-132.548 37.6967,-119.237"/>
<polygon fill="black" stroke="black" points="41.1968,-119.175 37.6967,-109.175 34.1968,-119.175 41.1968,-119.175"/>
</g>
<!-- (u,x+2)&#45;&gt;(v,x&#45;d+2) -->
<g id="edge11" class="edge"><title>(u,x+2)&#45;&gt;(v,x&#45;d+2)</title>
<path fill="none" stroke="black" d="M54.3232,-161.804C68.6011,-148.754 89.3955,-129.748 105.682,-114.863"/>
<polygon fill="black" stroke="black" points="108.247,-117.26 113.267,-107.93 103.524,-112.093 108.247,-117.26"/>
<text text-anchor="middle" x="98.1967" y="-130.8" font-family="Times New Roman,serif" font-size="14.00">inf</text>
</g>
<!-- (v,x&#45;d)&#45;&gt;(v,x&#45;d+1) -->
<g id="edge6" class="edge"><title>(v,x&#45;d)&#45;&gt;(v,x&#45;d+1)</title>
<path fill="none" stroke="green" d="M138.697,-246.799C138.697,-235.163 138.697,-219.548 138.697,-206.237"/>
<polygon fill="green" stroke="green" points="142.197,-206.175 138.697,-196.175 135.197,-206.175 142.197,-206.175"/>
<text text-anchor="middle" x="152.197" y="-217.8" font-family="Times New Roman,serif" font-size="14.00">(cut)</text>
</g>
</g>
</svg>
