<?xml version="1.0" encoding="UTF-8" standalone="no"?>
<!DOCTYPE svg PUBLIC "-//W3C//DTD SVG 1.1//EN"
 "http://www.w3.org/Graphics/SVG/1.1/DTD/svg11.dtd">
<!-- Generated by graphviz version 2.38.0 (20140413.2041)
 -->
<!-- Title: flow Pages: 1 -->
<svg width="233pt" height="392pt"
 viewBox="0.00 0.00 232.90 392.00" xmlns="http://www.w3.org/2000/svg" xmlns:xlink="http://www.w3.org/1999/xlink">
<g id="graph0" class="graph" transform="scale(1 1) rotate(0) translate(4 388)">
<title>flow</title>
<polygon fill="white" stroke="none" points="-4,4 -4,-388 228.895,-388 228.895,4 -4,4"/>
<!-- S -->
<g id="node1" class="node"><title>S</title>
<ellipse fill="none" stroke="black" cx="162.948" cy="-366" rx="27" ry="18"/>
<text text-anchor="middle" x="162.948" y="-362.3" font-family="Times New Roman,serif" font-size="14.00">S</text>
</g>
<!-- (1,2) -->
<g id="node2" class="node"><title>(1,2)</title>
<ellipse fill="none" stroke="black" cx="121.948" cy="-279" rx="27.8951" ry="18"/>
<text text-anchor="middle" x="121.948" y="-275.3" font-family="Times New Roman,serif" font-size="14.00">(1,2)</text>
</g>
<!-- S&#45;&gt;(1,2) -->
<g id="edge1" class="edge"><title>S&#45;&gt;(1,2)</title>
<path fill="none" stroke="black" d="M155.042,-348.611C149.143,-336.382 140.973,-319.443 134.226,-305.456"/>
<polygon fill="black" stroke="black" points="137.325,-303.825 129.828,-296.339 131.021,-306.866 137.325,-303.825"/>
<text text-anchor="middle" x="151.448" y="-318.8" font-family="Times New Roman,serif" font-size="14.00">inf</text>
</g>
<!-- (2,1) -->
<g id="node6" class="node"><title>(2,1)</title>
<ellipse fill="none" stroke="black" cx="196.948" cy="-279" rx="27.8951" ry="18"/>
<text text-anchor="middle" x="196.948" y="-275.3" font-family="Times New Roman,serif" font-size="14.00">(2,1)</text>
</g>
<!-- S&#45;&gt;(2,1) -->
<g id="edge5" class="edge"><title>S&#45;&gt;(2,1)</title>
<path fill="none" stroke="black" d="M169.665,-348.207C174.461,-336.216 181.007,-319.851 186.485,-306.157"/>
<polygon fill="black" stroke="black" points="189.78,-307.343 190.244,-296.758 183.281,-304.743 189.78,-307.343"/>
<text text-anchor="middle" x="189.448" y="-318.8" font-family="Times New Roman,serif" font-size="14.00">inf</text>
</g>
<!-- (1,3) -->
<g id="node3" class="node"><title>(1,3)</title>
<ellipse fill="none" stroke="black" cx="71.9475" cy="-192" rx="27.8951" ry="18"/>
<text text-anchor="middle" x="71.9475" y="-188.3" font-family="Times New Roman,serif" font-size="14.00">(1,3)</text>
</g>
<!-- (1,2)&#45;&gt;(1,3) -->
<g id="edge2" class="edge"><title>(1,2)&#45;&gt;(1,3)</title>
<path fill="none" stroke="black" d="M105.151,-264.421C98.6794,-258.442 91.7066,-250.968 86.9475,-243 82.7468,-235.967 79.6425,-227.667 77.384,-219.872"/>
<polygon fill="black" stroke="black" points="80.7451,-218.887 74.8812,-210.063 73.9624,-220.618 80.7451,-218.887"/>
<text text-anchor="middle" x="100.948" y="-231.8" font-family="Times New Roman,serif" font-size="14.00">lim&#45;2</text>
</g>
<!-- (2,2) -->
<g id="node7" class="node"><title>(2,2)</title>
<ellipse fill="none" stroke="black" cx="158.948" cy="-192" rx="27.8951" ry="18"/>
<text text-anchor="middle" x="158.948" y="-188.3" font-family="Times New Roman,serif" font-size="14.00">(2,2)</text>
</g>
<!-- (1,2)&#45;&gt;(2,2) -->
<g id="edge9" class="edge"><title>(1,2)&#45;&gt;(2,2)</title>
<path fill="none" stroke="black" d="M119.127,-260.645C118.27,-250.693 118.52,-238.193 122.948,-228 125.35,-222.468 129.084,-217.37 133.253,-212.875"/>
<polygon fill="black" stroke="black" points="135.724,-215.355 140.524,-205.91 130.881,-210.3 135.724,-215.355"/>
<text text-anchor="middle" x="130.448" y="-231.8" font-family="Times New Roman,serif" font-size="14.00">inf</text>
</g>
<!-- (1,4) -->
<g id="node4" class="node"><title>(1,4)</title>
<ellipse fill="none" stroke="black" cx="27.9475" cy="-105" rx="27.8951" ry="18"/>
<text text-anchor="middle" x="27.9475" y="-101.3" font-family="Times New Roman,serif" font-size="14.00">(1,4)</text>
</g>
<!-- (1,3)&#45;&gt;(1,4) -->
<g id="edge3" class="edge"><title>(1,3)&#45;&gt;(1,4)</title>
<path fill="none" stroke="black" d="M56.0784,-176.972C50.2299,-171.034 44.0401,-163.708 39.9475,-156 36.206,-148.953 33.6143,-140.732 31.8257,-133.016"/>
<polygon fill="black" stroke="black" points="35.2133,-132.103 29.8518,-122.965 28.3445,-133.452 35.2133,-132.103"/>
<text text-anchor="middle" x="53.9475" y="-144.8" font-family="Times New Roman,serif" font-size="14.00">lim&#45;3</text>
</g>
<!-- (2,3) -->
<g id="node8" class="node"><title>(2,3)</title>
<ellipse fill="none" stroke="black" cx="108.948" cy="-105" rx="27.8951" ry="18"/>
<text text-anchor="middle" x="108.948" y="-101.3" font-family="Times New Roman,serif" font-size="14.00">(2,3)</text>
</g>
<!-- (1,3)&#45;&gt;(2,3) -->
<g id="edge11" class="edge"><title>(1,3)&#45;&gt;(2,3)</title>
<path fill="none" stroke="black" d="M70.5546,-173.64C70.4236,-163.687 71.4236,-151.187 75.9475,-141 78.1369,-136.07 81.3224,-131.399 84.8619,-127.171"/>
<polygon fill="black" stroke="black" points="87.6444,-129.321 91.936,-119.634 82.5404,-124.53 87.6444,-129.321"/>
<text text-anchor="middle" x="83.4475" y="-144.8" font-family="Times New Roman,serif" font-size="14.00">inf</text>
</g>
<!-- T -->
<g id="node5" class="node"><title>T</title>
<ellipse fill="none" stroke="black" cx="72.9475" cy="-18" rx="27" ry="18"/>
<text text-anchor="middle" x="72.9475" y="-14.3" font-family="Times New Roman,serif" font-size="14.00">T</text>
</g>
<!-- (1,4)&#45;&gt;T -->
<g id="edge4" class="edge"><title>(1,4)&#45;&gt;T</title>
<path fill="none" stroke="black" d="M36.624,-87.6111C43.0984,-75.3817 52.066,-58.4429 59.4708,-44.456"/>
<polygon fill="black" stroke="black" points="62.712,-45.8141 64.2977,-35.3385 56.5255,-42.5388 62.712,-45.8141"/>
<text text-anchor="middle" x="61.4475" y="-57.8" font-family="Times New Roman,serif" font-size="14.00">inf</text>
</g>
<!-- (2,1)&#45;&gt;(2,2) -->
<g id="edge6" class="edge"><title>(2,1)&#45;&gt;(2,2)</title>
<path fill="none" stroke="black" d="M189.621,-261.611C184.241,-249.577 176.822,-232.983 170.628,-219.128"/>
<polygon fill="black" stroke="black" points="173.658,-217.329 166.381,-209.629 167.268,-220.186 173.658,-217.329"/>
<text text-anchor="middle" x="193.948" y="-231.8" font-family="Times New Roman,serif" font-size="14.00">lim&#45;2</text>
</g>
<!-- (2,2)&#45;&gt;(1,2) -->
<g id="edge10" class="edge"><title>(2,2)&#45;&gt;(1,2)</title>
<path fill="none" stroke="black" d="M152.077,-209.722C148.037,-219.463 142.787,-231.963 137.948,-243 136.606,-246.059 135.178,-249.259 133.749,-252.427"/>
<polygon fill="black" stroke="black" points="130.501,-251.115 129.542,-261.666 136.872,-254.016 130.501,-251.115"/>
<text text-anchor="middle" x="150.448" y="-231.8" font-family="Times New Roman,serif" font-size="14.00">inf</text>
</g>
<!-- (2,2)&#45;&gt;(2,3) -->
<g id="edge7" class="edge"><title>(2,2)&#45;&gt;(2,3)</title>
<path fill="none" stroke="black" d="M149.543,-175.012C142.256,-162.625 132.027,-145.235 123.66,-131.011"/>
<polygon fill="black" stroke="black" points="126.567,-129.05 118.48,-122.205 120.533,-132.599 126.567,-129.05"/>
<text text-anchor="middle" x="149.948" y="-144.8" font-family="Times New Roman,serif" font-size="14.00">lim&#45;3</text>
</g>
<!-- (2,3)&#45;&gt;(1,3) -->
<g id="edge12" class="edge"><title>(2,3)&#45;&gt;(1,3)</title>
<path fill="none" stroke="black" d="M103.571,-122.918C100.278,-132.724 95.7785,-145.224 90.9475,-156 89.4891,-159.253 87.8474,-162.616 86.1554,-165.912"/>
<polygon fill="black" stroke="black" points="82.9903,-164.408 81.3641,-174.878 89.1641,-167.708 82.9903,-164.408"/>
<text text-anchor="middle" x="105.448" y="-144.8" font-family="Times New Roman,serif" font-size="14.00">inf</text>
</g>
<!-- (2,3)&#45;&gt;T -->
<g id="edge8" class="edge"><title>(2,3)&#45;&gt;T</title>
<path fill="none" stroke="black" d="M101.835,-87.2067C96.7235,-75.1377 89.7355,-58.6384 83.913,-44.8906"/>
<polygon fill="black" stroke="black" points="87.0455,-43.3123 79.9227,-35.4692 80.5998,-46.0423 87.0455,-43.3123"/>
<text text-anchor="middle" x="101.448" y="-57.8" font-family="Times New Roman,serif" font-size="14.00">inf</text>
</g>
</g>
</svg>
