<?xml version="1.0" encoding="UTF-8" standalone="no"?>
<!DOCTYPE svg PUBLIC "-//W3C//DTD SVG 1.1//EN"
 "http://www.w3.org/Graphics/SVG/1.1/DTD/svg11.dtd">
<!-- Generated by graphviz version 2.38.0 (20140413.2041)
 -->
<!-- Title: flow Pages: 1 -->
<svg width="331pt" height="465pt"
 viewBox="0.00 0.00 331.50 465.00" xmlns="http://www.w3.org/2000/svg" xmlns:xlink="http://www.w3.org/1999/xlink">
<g id="graph0" class="graph" transform="scale(1 1) rotate(0) translate(4 461)">
<title>flow</title>
<polygon fill="white" stroke="none" points="-4,4 -4,-461 327.496,-461 327.496,4 -4,4"/>
<!-- dot1 -->
<g id="node1" class="node"><title>dot1</title>
<ellipse fill="none" stroke="black" cx="47.496" cy="-178" rx="27" ry="18"/>
<text text-anchor="middle" x="47.496" y="-174.3" font-family="Times New Roman,serif" font-size="14.00">...</text>
</g>
<!-- (1,r[1]) -->
<g id="node7" class="node"><title>(1,r[1])</title>
<ellipse fill="none" stroke="black" cx="54.496" cy="-105" rx="36.2938" ry="18"/>
<text text-anchor="middle" x="54.496" y="-101.3" font-family="Times New Roman,serif" font-size="14.00">(1,r[1])</text>
</g>
<!-- dot1&#45;&gt;(1,r[1]) -->
<g id="edge4" class="edge"><title>dot1&#45;&gt;(1,r[1])</title>
<path fill="none" stroke="black" d="M49.1905,-159.813C49.9815,-151.789 50.942,-142.047 51.8272,-133.069"/>
<polygon fill="black" stroke="black" points="55.3189,-133.324 52.8171,-123.029 48.3527,-132.637 55.3189,-133.324"/>
</g>
<!-- dot2 -->
<g id="node2" class="node"><title>dot2</title>
<ellipse fill="none" stroke="black" cx="154.496" cy="-178" rx="27" ry="18"/>
<text text-anchor="middle" x="154.496" y="-174.3" font-family="Times New Roman,serif" font-size="14.00">...</text>
</g>
<!-- (2,r[2]) -->
<g id="node11" class="node"><title>(2,r[2])</title>
<ellipse fill="none" stroke="black" cx="154.496" cy="-105" rx="36.2938" ry="18"/>
<text text-anchor="middle" x="154.496" y="-101.3" font-family="Times New Roman,serif" font-size="14.00">(2,r[2])</text>
</g>
<!-- dot2&#45;&gt;(2,r[2]) -->
<g id="edge9" class="edge"><title>dot2&#45;&gt;(2,r[2])</title>
<path fill="none" stroke="black" d="M154.496,-159.813C154.496,-151.789 154.496,-142.047 154.496,-133.069"/>
<polygon fill="black" stroke="black" points="157.996,-133.029 154.496,-123.029 150.996,-133.029 157.996,-133.029"/>
</g>
<!-- dot3 -->
<g id="node3" class="node"><title>dot3</title>
<ellipse fill="none" stroke="black" cx="252.496" cy="-178" rx="27" ry="18"/>
<text text-anchor="middle" x="252.496" y="-174.3" font-family="Times New Roman,serif" font-size="14.00">...</text>
</g>
<!-- (3,r[3]) -->
<g id="node14" class="node"><title>(3,r[3])</title>
<ellipse fill="none" stroke="black" cx="249.496" cy="-105" rx="36.2938" ry="18"/>
<text text-anchor="middle" x="249.496" y="-101.3" font-family="Times New Roman,serif" font-size="14.00">(3,r[3])</text>
</g>
<!-- dot3&#45;&gt;(3,r[3]) -->
<g id="edge14" class="edge"><title>dot3&#45;&gt;(3,r[3])</title>
<path fill="none" stroke="black" d="M251.77,-159.813C251.431,-151.789 251.019,-142.047 250.64,-133.069"/>
<polygon fill="black" stroke="black" points="254.135,-132.872 250.215,-123.029 247.141,-133.168 254.135,-132.872"/>
</g>
<!-- S -->
<g id="node4" class="node"><title>S</title>
<ellipse fill="none" stroke="black" cx="154.496" cy="-439" rx="27" ry="18"/>
<text text-anchor="middle" x="154.496" y="-435.3" font-family="Times New Roman,serif" font-size="14.00">S</text>
</g>
<!-- (1,l[1]) -->
<g id="node5" class="node"><title>(1,l[1])</title>
<ellipse fill="none" stroke="black" cx="60.496" cy="-352" rx="35.9954" ry="18"/>
<text text-anchor="middle" x="60.496" y="-348.3" font-family="Times New Roman,serif" font-size="14.00">(1,l[1])</text>
</g>
<!-- S&#45;&gt;(1,l[1]) -->
<g id="edge1" class="edge"><title>S&#45;&gt;(1,l[1])</title>
<path fill="none" stroke="black" d="M138.974,-423.964C124.232,-410.634 101.844,-390.389 84.7476,-374.93"/>
<polygon fill="black" stroke="black" points="87.0762,-372.317 77.3114,-368.205 82.3812,-377.509 87.0762,-372.317"/>
<text text-anchor="middle" x="120.996" y="-391.8" font-family="Times New Roman,serif" font-size="14.00">inf</text>
</g>
<!-- (2,l[2]) -->
<g id="node9" class="node"><title>(2,l[2])</title>
<ellipse fill="none" stroke="black" cx="154.496" cy="-352" rx="35.9954" ry="18"/>
<text text-anchor="middle" x="154.496" y="-348.3" font-family="Times New Roman,serif" font-size="14.00">(2,l[2])</text>
</g>
<!-- S&#45;&gt;(2,l[2]) -->
<g id="edge6" class="edge"><title>S&#45;&gt;(2,l[2])</title>
<path fill="none" stroke="black" d="M154.496,-420.799C154.496,-409.163 154.496,-393.548 154.496,-380.237"/>
<polygon fill="black" stroke="black" points="157.996,-380.175 154.496,-370.175 150.996,-380.175 157.996,-380.175"/>
<text text-anchor="middle" x="161.996" y="-391.8" font-family="Times New Roman,serif" font-size="14.00">inf</text>
</g>
<!-- (3,l[3]) -->
<g id="node12" class="node"><title>(3,l[3])</title>
<ellipse fill="none" stroke="black" cx="248.496" cy="-352" rx="35.9954" ry="18"/>
<text text-anchor="middle" x="248.496" y="-348.3" font-family="Times New Roman,serif" font-size="14.00">(3,l[3])</text>
</g>
<!-- S&#45;&gt;(3,l[3]) -->
<g id="edge11" class="edge"><title>S&#45;&gt;(3,l[3])</title>
<path fill="none" stroke="black" d="M170.018,-423.964C184.76,-410.634 207.148,-390.389 224.244,-374.93"/>
<polygon fill="black" stroke="black" points="226.611,-377.509 231.68,-368.205 221.916,-372.317 226.611,-377.509"/>
<text text-anchor="middle" x="214.996" y="-391.8" font-family="Times New Roman,serif" font-size="14.00">inf</text>
</g>
<!-- (1,l[1]+1) -->
<g id="node6" class="node"><title>(1,l[1]+1)</title>
<ellipse fill="none" stroke="black" cx="45.496" cy="-265" rx="45.4919" ry="18"/>
<text text-anchor="middle" x="45.496" y="-261.3" font-family="Times New Roman,serif" font-size="14.00">(1,l[1]+1)</text>
</g>
<!-- (1,l[1])&#45;&gt;(1,l[1]+1) -->
<g id="edge2" class="edge"><title>(1,l[1])&#45;&gt;(1,l[1]+1)</title>
<path fill="none" stroke="black" d="M57.4605,-333.799C55.407,-322.163 52.6515,-306.548 50.3025,-293.237"/>
<polygon fill="black" stroke="black" points="53.7116,-292.415 48.5269,-283.175 46.8181,-293.632 53.7116,-292.415"/>
<text text-anchor="middle" x="86.496" y="-304.8" font-family="Times New Roman,serif" font-size="14.00">lim&#45;f(1,l[1])</text>
</g>
<!-- (1,l[1]+1)&#45;&gt;dot1 -->
<g id="edge3" class="edge"><title>(1,l[1]+1)&#45;&gt;dot1</title>
<path fill="none" stroke="black" d="M45.9007,-246.799C46.1745,-235.163 46.5419,-219.548 46.8551,-206.237"/>
<polygon fill="black" stroke="black" points="50.3555,-206.255 47.0918,-196.175 43.3575,-206.09 50.3555,-206.255"/>
<text text-anchor="middle" x="79.496" y="-217.8" font-family="Times New Roman,serif" font-size="14.00">lim&#45;f(1,l[1])</text>
</g>
<!-- T -->
<g id="node8" class="node"><title>T</title>
<ellipse fill="none" stroke="black" cx="154.496" cy="-18" rx="27" ry="18"/>
<text text-anchor="middle" x="154.496" y="-14.3" font-family="Times New Roman,serif" font-size="14.00">T</text>
</g>
<!-- (1,r[1])&#45;&gt;T -->
<g id="edge5" class="edge"><title>(1,r[1])&#45;&gt;T</title>
<path fill="none" stroke="black" d="M61.6607,-87.0362C66.7899,-76.4841 74.543,-63.2168 84.496,-54 95.0618,-44.2157 108.877,-36.5339 121.44,-30.8908"/>
<polygon fill="black" stroke="black" points="122.875,-34.084 130.728,-26.9718 120.154,-27.6345 122.875,-34.084"/>
<text text-anchor="middle" x="117.496" y="-57.8" font-family="Times New Roman,serif" font-size="14.00">lim&#45;f(1,r[1])</text>
</g>
<!-- (2,l[2]+1) -->
<g id="node10" class="node"><title>(2,l[2]+1)</title>
<ellipse fill="none" stroke="black" cx="154.496" cy="-265" rx="45.4919" ry="18"/>
<text text-anchor="middle" x="154.496" y="-261.3" font-family="Times New Roman,serif" font-size="14.00">(2,l[2]+1)</text>
</g>
<!-- (2,l[2])&#45;&gt;(2,l[2]+1) -->
<g id="edge7" class="edge"><title>(2,l[2])&#45;&gt;(2,l[2]+1)</title>
<path fill="none" stroke="black" d="M154.496,-333.799C154.496,-322.163 154.496,-306.548 154.496,-293.237"/>
<polygon fill="black" stroke="black" points="157.996,-293.175 154.496,-283.175 150.996,-293.175 157.996,-293.175"/>
<text text-anchor="middle" x="186.496" y="-304.8" font-family="Times New Roman,serif" font-size="14.00">lim&#45;f(2,l[2])</text>
</g>
<!-- (2,l[2]+1)&#45;&gt;dot2 -->
<g id="edge8" class="edge"><title>(2,l[2]+1)&#45;&gt;dot2</title>
<path fill="none" stroke="black" d="M154.496,-246.799C154.496,-235.163 154.496,-219.548 154.496,-206.237"/>
<polygon fill="black" stroke="black" points="157.996,-206.175 154.496,-196.175 150.996,-206.175 157.996,-206.175"/>
<text text-anchor="middle" x="186.496" y="-217.8" font-family="Times New Roman,serif" font-size="14.00">lim&#45;f(2,l[2])</text>
</g>
<!-- (2,r[2])&#45;&gt;T -->
<g id="edge10" class="edge"><title>(2,r[2])&#45;&gt;T</title>
<path fill="none" stroke="black" d="M154.496,-86.799C154.496,-75.1626 154.496,-59.5479 154.496,-46.2368"/>
<polygon fill="black" stroke="black" points="157.996,-46.1754 154.496,-36.1754 150.996,-46.1755 157.996,-46.1754"/>
<text text-anchor="middle" x="187.496" y="-57.8" font-family="Times New Roman,serif" font-size="14.00">lim&#45;f(2,r[2])</text>
</g>
<!-- (3,l[3]+1) -->
<g id="node13" class="node"><title>(3,l[3]+1)</title>
<ellipse fill="none" stroke="black" cx="263.496" cy="-265" rx="45.4919" ry="18"/>
<text text-anchor="middle" x="263.496" y="-261.3" font-family="Times New Roman,serif" font-size="14.00">(3,l[3]+1)</text>
</g>
<!-- (3,l[3])&#45;&gt;(3,l[3]+1) -->
<g id="edge12" class="edge"><title>(3,l[3])&#45;&gt;(3,l[3]+1)</title>
<path fill="none" stroke="black" d="M251.531,-333.799C253.585,-322.163 256.34,-306.548 258.689,-293.237"/>
<polygon fill="black" stroke="black" points="262.174,-293.632 260.465,-283.175 255.28,-292.415 262.174,-293.632"/>
<text text-anchor="middle" x="289.496" y="-304.8" font-family="Times New Roman,serif" font-size="14.00">lim&#45;f(3,l[3])</text>
</g>
<!-- (3,l[3]+1)&#45;&gt;dot3 -->
<g id="edge13" class="edge"><title>(3,l[3]+1)&#45;&gt;dot3</title>
<path fill="none" stroke="black" d="M261.27,-246.799C259.764,-235.163 257.743,-219.548 256.021,-206.237"/>
<polygon fill="black" stroke="black" points="259.473,-205.644 254.719,-196.175 252.531,-206.542 259.473,-205.644"/>
<text text-anchor="middle" x="291.496" y="-217.8" font-family="Times New Roman,serif" font-size="14.00">lim&#45;f(3,l[3])</text>
</g>
<!-- (3,r[3])&#45;&gt;T -->
<g id="edge15" class="edge"><title>(3,r[3])&#45;&gt;T</title>
<path fill="none" stroke="black" d="M243.376,-87.0621C238.891,-76.5202 231.936,-63.2547 222.496,-54 212.621,-44.3184 199.525,-36.7211 187.464,-31.1149"/>
<polygon fill="black" stroke="black" points="188.66,-27.8188 178.094,-27.0438 185.871,-34.2389 188.66,-27.8188"/>
<text text-anchor="middle" x="267.496" y="-57.8" font-family="Times New Roman,serif" font-size="14.00">lim&#45;f(3,r[3])</text>
</g>
</g>
</svg>
