<?xml version="1.0" encoding="UTF-8" standalone="no"?>
<!DOCTYPE svg PUBLIC "-//W3C//DTD SVG 1.1//EN"
 "http://www.w3.org/Graphics/SVG/1.1/DTD/svg11.dtd">
<!-- Generated by graphviz version 2.38.0 (20140413.2041)
 -->
<!-- Title: flow Pages: 1 -->
<svg width="186pt" height="305pt"
 viewBox="0.00 0.00 185.90 305.00" xmlns="http://www.w3.org/2000/svg" xmlns:xlink="http://www.w3.org/1999/xlink">
<g id="graph0" class="graph" transform="scale(1 1) rotate(0) translate(4 301)">
<title>flow</title>
<polygon fill="white" stroke="none" points="-4,4 -4,-301 181.895,-301 181.895,4 -4,4"/>
<!-- S -->
<g id="node1" class="node"><title>S</title>
<ellipse fill="none" stroke="black" cx="115.948" cy="-279" rx="27" ry="18"/>
<text text-anchor="middle" x="115.948" y="-275.3" font-family="Times New Roman,serif" font-size="14.00">S</text>
</g>
<!-- (1,2) -->
<g id="node2" class="node"><title>(1,2)</title>
<ellipse fill="none" stroke="black" cx="74.9475" cy="-192" rx="27.8951" ry="18"/>
<text text-anchor="middle" x="74.9475" y="-188.3" font-family="Times New Roman,serif" font-size="14.00">(1,2)</text>
</g>
<!-- S&#45;&gt;(1,2) -->
<g id="edge1" class="edge"><title>S&#45;&gt;(1,2)</title>
<path fill="none" stroke="black" d="M108.042,-261.611C102.143,-249.382 93.9729,-232.443 87.2263,-218.456"/>
<polygon fill="black" stroke="black" points="90.3255,-216.825 82.8285,-209.339 84.0206,-219.866 90.3255,-216.825"/>
<text text-anchor="middle" x="105.448" y="-231.8" font-family="Times New Roman,serif" font-size="14.00">inf</text>
</g>
<!-- (2,1) -->
<g id="node5" class="node"><title>(2,1)</title>
<ellipse fill="none" stroke="black" cx="149.948" cy="-192" rx="27.8951" ry="18"/>
<text text-anchor="middle" x="149.948" y="-188.3" font-family="Times New Roman,serif" font-size="14.00">(2,1)</text>
</g>
<!-- S&#45;&gt;(2,1) -->
<g id="edge4" class="edge"><title>S&#45;&gt;(2,1)</title>
<path fill="none" stroke="black" d="M122.665,-261.207C127.461,-249.216 134.007,-232.851 139.485,-219.157"/>
<polygon fill="black" stroke="black" points="142.78,-220.343 143.244,-209.758 136.281,-217.743 142.78,-220.343"/>
<text text-anchor="middle" x="142.448" y="-231.8" font-family="Times New Roman,serif" font-size="14.00">inf</text>
</g>
<!-- (1,3) -->
<g id="node3" class="node"><title>(1,3)</title>
<ellipse fill="none" stroke="black" cx="27.9475" cy="-105" rx="27.8951" ry="18"/>
<text text-anchor="middle" x="27.9475" y="-101.3" font-family="Times New Roman,serif" font-size="14.00">(1,3)</text>
</g>
<!-- (1,2)&#45;&gt;(1,3) -->
<g id="edge2" class="edge"><title>(1,2)&#45;&gt;(1,3)</title>
<path fill="none" stroke="black" d="M58.4951,-177.426C52.1874,-171.448 45.435,-163.973 40.9475,-156 36.9711,-148.935 34.182,-140.625 32.2375,-132.831"/>
<polygon fill="black" stroke="black" points="35.6551,-132.075 30.139,-123.03 28.8102,-133.541 35.6551,-132.075"/>
<text text-anchor="middle" x="54.9475" y="-144.8" font-family="Times New Roman,serif" font-size="14.00">lim&#45;2</text>
</g>
<!-- (2,2) -->
<g id="node6" class="node"><title>(2,2)</title>
<ellipse fill="none" stroke="black" cx="108.948" cy="-105" rx="27.8951" ry="18"/>
<text text-anchor="middle" x="108.948" y="-101.3" font-family="Times New Roman,serif" font-size="14.00">(2,2)</text>
</g>
<!-- (1,2)&#45;&gt;(2,2) -->
<g id="edge7" class="edge"><title>(1,2)&#45;&gt;(2,2)</title>
<path fill="none" stroke="black" d="M72.2941,-173.715C71.493,-163.787 71.743,-151.287 75.9475,-141 77.9884,-136.006 81.1004,-131.305 84.6129,-127.065"/>
<polygon fill="black" stroke="black" points="87.3953,-129.215 91.6851,-119.527 82.2904,-124.425 87.3953,-129.215"/>
<text text-anchor="middle" x="83.4475" y="-144.8" font-family="Times New Roman,serif" font-size="14.00">inf</text>
</g>
<!-- T -->
<g id="node4" class="node"><title>T</title>
<ellipse fill="none" stroke="black" cx="71.9475" cy="-18" rx="27" ry="18"/>
<text text-anchor="middle" x="71.9475" y="-14.3" font-family="Times New Roman,serif" font-size="14.00">T</text>
</g>
<!-- (1,3)&#45;&gt;T -->
<g id="edge3" class="edge"><title>(1,3)&#45;&gt;T</title>
<path fill="none" stroke="black" d="M36.4312,-87.6111C42.7617,-75.3817 51.53,-58.4429 58.7703,-44.456"/>
<polygon fill="black" stroke="black" points="62.001,-45.8283 63.4899,-35.3385 55.7845,-42.6103 62.001,-45.8283"/>
<text text-anchor="middle" x="66.9475" y="-57.8" font-family="Times New Roman,serif" font-size="14.00">lim&#45;3</text>
</g>
<!-- (2,1)&#45;&gt;(2,2) -->
<g id="edge5" class="edge"><title>(2,1)&#45;&gt;(2,2)</title>
<path fill="none" stroke="black" d="M142.042,-174.611C136.143,-162.382 127.973,-145.443 121.226,-131.456"/>
<polygon fill="black" stroke="black" points="124.325,-129.825 116.828,-122.339 118.021,-132.866 124.325,-129.825"/>
<text text-anchor="middle" x="144.948" y="-144.8" font-family="Times New Roman,serif" font-size="14.00">lim&#45;2</text>
</g>
<!-- (2,2)&#45;&gt;(1,2) -->
<g id="edge8" class="edge"><title>(2,2)&#45;&gt;(1,2)</title>
<path fill="none" stroke="black" d="M103.292,-122.799C99.9063,-132.565 95.4063,-145.065 90.9475,-156 89.7501,-158.937 88.4466,-161.988 87.1175,-165.01"/>
<polygon fill="black" stroke="black" points="83.8081,-163.834 82.8834,-174.389 90.1881,-166.715 83.8081,-163.834"/>
<text text-anchor="middle" x="104.448" y="-144.8" font-family="Times New Roman,serif" font-size="14.00">inf</text>
</g>
<!-- (2,2)&#45;&gt;T -->
<g id="edge6" class="edge"><title>(2,2)&#45;&gt;T</title>
<path fill="none" stroke="black" d="M101.638,-87.2067C96.3839,-75.1377 89.2019,-58.6384 83.2176,-44.8906"/>
<polygon fill="black" stroke="black" points="86.3169,-43.2412 79.1164,-35.4692 79.8986,-46.0351 86.3169,-43.2412"/>
<text text-anchor="middle" x="106.948" y="-57.8" font-family="Times New Roman,serif" font-size="14.00">lim&#45;3</text>
</g>
</g>
</svg>
