<?xml version="1.0" encoding="UTF-8" standalone="no"?>
<!DOCTYPE svg PUBLIC "-//W3C//DTD SVG 1.1//EN"
 "http://www.w3.org/Graphics/SVG/1.1/DTD/svg11.dtd">
<!-- Generated by graphviz version 2.38.0 (20140413.2041)
 -->
<!-- Title: flow Pages: 1 -->
<svg width="245pt" height="413pt"
 viewBox="0.00 0.00 244.90 413.00" xmlns="http://www.w3.org/2000/svg" xmlns:xlink="http://www.w3.org/1999/xlink">
<g id="graph0" class="graph" transform="scale(1 1) rotate(0) translate(4 409)">
<title>flow</title>
<polygon fill="white" stroke="none" points="-4,4 -4,-409 240.895,-409 240.895,4 -4,4"/>
<!-- S -->
<g id="node1" class="node"><title>S</title>
<ellipse fill="none" stroke="black" cx="79.9475" cy="-387" rx="27" ry="18"/>
<text text-anchor="middle" x="79.9475" y="-383.3" font-family="Times New Roman,serif" font-size="14.00">S</text>
</g>
<!-- (1,2) -->
<g id="node2" class="node"><title>(1,2)</title>
<ellipse fill="none" stroke="black" cx="159.948" cy="-300" rx="27.8951" ry="18"/>
<text text-anchor="middle" x="159.948" y="-296.3" font-family="Times New Roman,serif" font-size="14.00">(1,2)</text>
</g>
<!-- S&#45;&gt;(1,2) -->
<g id="edge1" class="edge"><title>S&#45;&gt;(1,2)</title>
<path fill="none" stroke="black" d="M93.8825,-371.194C106.31,-357.99 124.683,-338.468 138.901,-323.362"/>
<polygon fill="black" stroke="black" points="141.599,-325.602 145.904,-315.921 136.501,-320.805 141.599,-325.602"/>
<text text-anchor="middle" x="132.448" y="-339.8" font-family="Times New Roman,serif" font-size="14.00">inf</text>
</g>
<!-- (2,1) -->
<g id="node5" class="node"><title>(2,1)</title>
<ellipse fill="none" stroke="black" cx="79.9475" cy="-300" rx="27.8951" ry="18"/>
<text text-anchor="middle" x="79.9475" y="-296.3" font-family="Times New Roman,serif" font-size="14.00">(2,1)</text>
</g>
<!-- S&#45;&gt;(2,1) -->
<g id="edge4" class="edge"><title>S&#45;&gt;(2,1)</title>
<path fill="none" stroke="black" d="M79.9475,-368.799C79.9475,-357.163 79.9475,-341.548 79.9475,-328.237"/>
<polygon fill="black" stroke="black" points="83.4476,-328.175 79.9475,-318.175 76.4476,-328.175 83.4476,-328.175"/>
<text text-anchor="middle" x="87.4475" y="-339.8" font-family="Times New Roman,serif" font-size="14.00">inf</text>
</g>
<!-- (3,1) -->
<g id="node7" class="node"><title>(3,1)</title>
<ellipse fill="none" stroke="black" cx="27.9475" cy="-213" rx="27.8951" ry="18"/>
<text text-anchor="middle" x="27.9475" y="-209.3" font-family="Times New Roman,serif" font-size="14.00">(3,1)</text>
</g>
<!-- S&#45;&gt;(3,1) -->
<g id="edge7" class="edge"><title>S&#45;&gt;(3,1)</title>
<path fill="none" stroke="black" d="M64.7608,-372.044C52.165,-359.358 35.1911,-339.397 27.9475,-318 19.4781,-292.982 20.688,-262.597 23.2807,-241.148"/>
<polygon fill="black" stroke="black" points="26.7657,-241.496 24.6732,-231.11 19.8321,-240.535 26.7657,-241.496"/>
<text text-anchor="middle" x="35.4475" y="-296.3" font-family="Times New Roman,serif" font-size="14.00">inf</text>
</g>
<!-- (1,3) -->
<g id="node3" class="node"><title>(1,3)</title>
<ellipse fill="none" stroke="black" cx="208.948" cy="-159" rx="27.8951" ry="18"/>
<text text-anchor="middle" x="208.948" y="-155.3" font-family="Times New Roman,serif" font-size="14.00">(1,3)</text>
</g>
<!-- (1,2)&#45;&gt;(1,3) -->
<g id="edge2" class="edge"><title>(1,2)&#45;&gt;(1,3)</title>
<path fill="none" stroke="black" d="M170.172,-283.044C173.609,-277.211 177.251,-270.458 179.948,-264 190.513,-238.697 198.473,-208.353 203.355,-186.991"/>
<polygon fill="black" stroke="black" points="206.823,-187.52 205.564,-177 199.988,-186.009 206.823,-187.52"/>
<text text-anchor="middle" x="199.948" y="-252.8" font-family="Times New Roman,serif" font-size="14.00">lim&#45;2</text>
</g>
<!-- (2,2) -->
<g id="node6" class="node"><title>(2,2)</title>
<ellipse fill="none" stroke="black" cx="101.948" cy="-213" rx="27.8951" ry="18"/>
<text text-anchor="middle" x="101.948" y="-209.3" font-family="Times New Roman,serif" font-size="14.00">(2,2)</text>
</g>
<!-- (1,2)&#45;&gt;(2,2) -->
<g id="edge10" class="edge"><title>(1,2)&#45;&gt;(2,2)</title>
<path fill="none" stroke="black" d="M149.038,-283.012C140.451,-270.427 128.34,-252.679 118.551,-238.333"/>
<polygon fill="black" stroke="black" points="121.335,-236.204 112.808,-229.916 115.553,-240.149 121.335,-236.204"/>
<text text-anchor="middle" x="142.448" y="-252.8" font-family="Times New Roman,serif" font-size="14.00">inf</text>
</g>
<!-- T -->
<g id="node4" class="node"><title>T</title>
<ellipse fill="none" stroke="black" cx="144.948" cy="-18" rx="27" ry="18"/>
<text text-anchor="middle" x="144.948" y="-14.3" font-family="Times New Roman,serif" font-size="14.00">T</text>
</g>
<!-- (1,3)&#45;&gt;T -->
<g id="edge3" class="edge"><title>(1,3)&#45;&gt;T</title>
<path fill="none" stroke="black" d="M206.083,-140.866C201.98,-119.456 193.08,-82.2044 176.948,-54 174.307,-49.3837 170.962,-44.8686 167.435,-40.6977"/>
<polygon fill="black" stroke="black" points="169.892,-38.1974 160.569,-33.1647 164.719,-42.913 169.892,-38.1974"/>
<text text-anchor="middle" x="216.948" y="-101.3" font-family="Times New Roman,serif" font-size="14.00">lim&#45;3</text>
</g>
<!-- (2,1)&#45;&gt;(2,2) -->
<g id="edge5" class="edge"><title>(2,1)&#45;&gt;(2,2)</title>
<path fill="none" stroke="black" d="M80.711,-281.618C81.4656,-271.883 82.9657,-259.605 85.9475,-249 86.806,-245.947 87.8962,-242.823 89.1027,-239.759"/>
<polygon fill="black" stroke="black" points="92.4224,-240.902 93.2119,-230.337 86.006,-238.104 92.4224,-240.902"/>
<text text-anchor="middle" x="99.9475" y="-252.8" font-family="Times New Roman,serif" font-size="14.00">lim&#45;2</text>
</g>
<!-- (2,1)&#45;&gt;(3,1) -->
<g id="edge11" class="edge"><title>(2,1)&#45;&gt;(3,1)</title>
<path fill="none" stroke="black" d="M70.1667,-283.012C62.5405,-270.546 51.8145,-253.013 43.0822,-238.739"/>
<polygon fill="black" stroke="black" points="45.8887,-236.62 37.6845,-229.916 39.9174,-240.273 45.8887,-236.62"/>
<text text-anchor="middle" x="65.4475" y="-252.8" font-family="Times New Roman,serif" font-size="14.00">inf</text>
</g>
<!-- (2,2)&#45;&gt;T -->
<g id="edge6" class="edge"><title>(2,2)&#45;&gt;T</title>
<path fill="none" stroke="black" d="M93.5663,-195.632C82.2462,-171.176 65.1013,-124.017 79.9475,-87 87.7736,-67.4867 104.166,-50.403 118.53,-38.2399"/>
<polygon fill="black" stroke="black" points="121.09,-40.6709 126.672,-31.6658 116.693,-35.2243 121.09,-40.6709"/>
<text text-anchor="middle" x="93.9475" y="-101.3" font-family="Times New Roman,serif" font-size="14.00">lim&#45;3</text>
</g>
<!-- (3,2) -->
<g id="node8" class="node"><title>(3,2)</title>
<ellipse fill="none" stroke="black" cx="144.948" cy="-105" rx="27.8951" ry="18"/>
<text text-anchor="middle" x="144.948" y="-101.3" font-family="Times New Roman,serif" font-size="14.00">(3,2)</text>
</g>
<!-- (2,2)&#45;&gt;(3,2) -->
<g id="edge12" class="edge"><title>(2,2)&#45;&gt;(3,2)</title>
<path fill="none" stroke="black" d="M108.666,-195.438C115.537,-178.501 126.31,-151.944 134.334,-132.163"/>
<polygon fill="black" stroke="black" points="137.618,-133.378 138.134,-122.796 131.132,-130.747 137.618,-133.378"/>
<text text-anchor="middle" x="137.448" y="-155.3" font-family="Times New Roman,serif" font-size="14.00">inf</text>
</g>
<!-- (3,1)&#45;&gt;(3,2) -->
<g id="edge8" class="edge"><title>(3,1)&#45;&gt;(3,2)</title>
<path fill="none" stroke="black" d="M38.3566,-196.255C49.0375,-180.899 66.7659,-157.508 85.9475,-141 94.4985,-133.641 104.8,-126.936 114.385,-121.408"/>
<polygon fill="black" stroke="black" points="116.221,-124.392 123.275,-116.486 112.831,-118.268 116.221,-124.392"/>
<text text-anchor="middle" x="99.9475" y="-155.3" font-family="Times New Roman,serif" font-size="14.00">lim&#45;3</text>
</g>
<!-- (3,2)&#45;&gt;(1,2) -->
<g id="edge13" class="edge"><title>(3,2)&#45;&gt;(1,2)</title>
<path fill="none" stroke="black" d="M147.052,-123.074C147.713,-128.77 148.41,-135.153 148.948,-141 153.157,-186.803 156.562,-240.209 158.417,-271.726"/>
<polygon fill="black" stroke="black" points="154.934,-272.131 159.007,-281.912 161.922,-271.726 154.934,-272.131"/>
<text text-anchor="middle" x="163.448" y="-209.3" font-family="Times New Roman,serif" font-size="14.00">inf</text>
</g>
<!-- (3,2)&#45;&gt;T -->
<g id="edge9" class="edge"><title>(3,2)&#45;&gt;T</title>
<path fill="none" stroke="black" d="M144.948,-86.799C144.948,-75.1626 144.948,-59.5479 144.948,-46.2368"/>
<polygon fill="black" stroke="black" points="148.448,-46.1754 144.948,-36.1754 141.448,-46.1755 148.448,-46.1754"/>
<text text-anchor="middle" x="158.948" y="-57.8" font-family="Times New Roman,serif" font-size="14.00">lim&#45;4</text>
</g>
</g>
</svg>
