<?xml version="1.0" encoding="UTF-8" standalone="no"?>
<!DOCTYPE svg PUBLIC "-//W3C//DTD SVG 1.1//EN"
 "http://www.w3.org/Graphics/SVG/1.1/DTD/svg11.dtd">
<!-- Generated by graphviz version 2.48.0 (0)
 -->
<!-- Title: g Pages: 1 -->
<svg width="566pt" height="260pt"
 viewBox="0.00 0.00 566.00 260.00" xmlns="http://www.w3.org/2000/svg" xmlns:xlink="http://www.w3.org/1999/xlink">
<g id="graph0" class="graph" transform="scale(1 1) rotate(0) translate(4 256)">
<title>g</title>
<polygon fill="white" stroke="transparent" points="-4,4 -4,-256 562,-256 562,4 -4,4"/>
<!-- 000,001,010,011,100,101,110,111 -->
<g id="node1" class="node">
<title>000,001,010,011,100,101,110,111</title>
<polygon fill="none" stroke="black" points="420,-252 156,-252 156,-216 420,-216 420,-252"/>
<text text-anchor="middle" x="288" y="-230.3" font-family="Times,serif" font-size="14.00">000,001,010,011,100,101,110,111</text>
</g>
<!-- 000,010,100,110 -->
<g id="node2" class="node">
<title>000,010,100,110</title>
<polygon fill="none" stroke="black" points="270,-180 132,-180 132,-144 270,-144 270,-180"/>
<text text-anchor="middle" x="201" y="-158.3" font-family="Times,serif" font-size="14.00">000,010,100,110</text>
</g>
<!-- 000,001,010,011,100,101,110,111&#45;&#45;000,010,100,110 -->
<g id="edge1" class="edge">
<title>000,001,010,011,100,101,110,111&#45;&#45;000,010,100,110</title>
<path fill="none" stroke="black" d="M266.49,-215.7C253.01,-204.85 235.7,-190.92 222.26,-180.1"/>
</g>
<!-- 001,011,101,111 -->
<g id="node3" class="node">
<title>001,011,101,111</title>
<polygon fill="none" stroke="black" points="431,-180 293,-180 293,-144 431,-144 431,-180"/>
<text text-anchor="middle" x="362" y="-158.3" font-family="Times,serif" font-size="14.00">001,011,101,111</text>
</g>
<!-- 000,001,010,011,100,101,110,111&#45;&#45;001,011,101,111 -->
<g id="edge2" class="edge">
<title>000,001,010,011,100,101,110,111&#45;&#45;001,011,101,111</title>
<path fill="none" stroke="black" d="M306.29,-215.7C317.76,-204.85 332.49,-190.92 343.92,-180.1"/>
</g>
<!-- 000,100 -->
<g id="node4" class="node">
<title>000,100</title>
<polygon fill="none" stroke="black" points="136.5,-108 61.5,-108 61.5,-72 136.5,-72 136.5,-108"/>
<text text-anchor="middle" x="99" y="-86.3" font-family="Times,serif" font-size="14.00">000,100</text>
</g>
<!-- 000,010,100,110&#45;&#45;000,100 -->
<g id="edge3" class="edge">
<title>000,010,100,110&#45;&#45;000,100</title>
<path fill="none" stroke="black" d="M176.05,-143.88C160.24,-133.03 139.87,-119.05 124.05,-108.19"/>
</g>
<!-- 010,110 -->
<g id="node5" class="node">
<title>010,110</title>
<polygon fill="none" stroke="black" points="238.5,-108 163.5,-108 163.5,-72 238.5,-72 238.5,-108"/>
<text text-anchor="middle" x="201" y="-86.3" font-family="Times,serif" font-size="14.00">010,110</text>
</g>
<!-- 000,010,100,110&#45;&#45;010,110 -->
<g id="edge4" class="edge">
<title>000,010,100,110&#45;&#45;010,110</title>
<path fill="none" stroke="black" d="M201,-143.7C201,-132.85 201,-118.92 201,-108.1"/>
</g>
<!-- 001,101 -->
<g id="node6" class="node">
<title>001,101</title>
<polygon fill="none" stroke="black" points="399.5,-108 324.5,-108 324.5,-72 399.5,-72 399.5,-108"/>
<text text-anchor="middle" x="362" y="-86.3" font-family="Times,serif" font-size="14.00">001,101</text>
</g>
<!-- 001,011,101,111&#45;&#45;001,101 -->
<g id="edge5" class="edge">
<title>001,011,101,111&#45;&#45;001,101</title>
<path fill="none" stroke="black" d="M362,-143.7C362,-132.85 362,-118.92 362,-108.1"/>
</g>
<!-- 011,111 -->
<g id="node7" class="node">
<title>011,111</title>
<polygon fill="none" stroke="black" points="496.5,-108 421.5,-108 421.5,-72 496.5,-72 496.5,-108"/>
<text text-anchor="middle" x="459" y="-86.3" font-family="Times,serif" font-size="14.00">011,111</text>
</g>
<!-- 001,011,101,111&#45;&#45;011,111 -->
<g id="edge6" class="edge">
<title>001,011,101,111&#45;&#45;011,111</title>
<path fill="none" stroke="black" d="M385.98,-143.7C401.01,-132.85 420.32,-118.92 435.3,-108.1"/>
</g>
<!-- 000 -->
<g id="node12" class="node">
<title>000</title>
<polygon fill="none" stroke="black" points="54,-36 0,-36 0,0 54,0 54,-36"/>
<text text-anchor="middle" x="27" y="-14.3" font-family="Times,serif" font-size="14.00">000</text>
</g>
<!-- 000,100&#45;&#45;000 -->
<g id="edge11" class="edge">
<title>000,100&#45;&#45;000</title>
<path fill="none" stroke="black" d="M81.2,-71.7C70.04,-60.85 55.71,-46.92 44.59,-36.1"/>
</g>
<!-- 100 -->
<g id="node13" class="node">
<title>100</title>
<polygon fill="none" stroke="black" points="126,-36 72,-36 72,0 126,0 126,-36"/>
<text text-anchor="middle" x="99" y="-14.3" font-family="Times,serif" font-size="14.00">100</text>
</g>
<!-- 000,100&#45;&#45;100 -->
<g id="edge12" class="edge">
<title>000,100&#45;&#45;100</title>
<path fill="none" stroke="black" d="M99,-71.7C99,-60.85 99,-46.92 99,-36.1"/>
</g>
<!-- 010 -->
<g id="node14" class="node">
<title>010</title>
<polygon fill="none" stroke="black" points="198,-36 144,-36 144,0 198,0 198,-36"/>
<text text-anchor="middle" x="171" y="-14.3" font-family="Times,serif" font-size="14.00">010</text>
</g>
<!-- 010,110&#45;&#45;010 -->
<g id="edge13" class="edge">
<title>010,110&#45;&#45;010</title>
<path fill="none" stroke="black" d="M193.58,-71.7C188.93,-60.85 182.96,-46.92 178.33,-36.1"/>
</g>
<!-- 110 -->
<g id="node15" class="node">
<title>110</title>
<polygon fill="none" stroke="black" points="270,-36 216,-36 216,0 270,0 270,-36"/>
<text text-anchor="middle" x="243" y="-14.3" font-family="Times,serif" font-size="14.00">110</text>
</g>
<!-- 010,110&#45;&#45;110 -->
<g id="edge14" class="edge">
<title>010,110&#45;&#45;110</title>
<path fill="none" stroke="black" d="M211.38,-71.7C217.89,-60.85 226.25,-46.92 232.74,-36.1"/>
</g>
<!-- 001 -->
<g id="node8" class="node">
<title>001</title>
<polygon fill="none" stroke="black" points="342,-36 288,-36 288,0 342,0 342,-36"/>
<text text-anchor="middle" x="315" y="-14.3" font-family="Times,serif" font-size="14.00">001</text>
</g>
<!-- 001,101&#45;&#45;001 -->
<g id="edge7" class="edge">
<title>001,101&#45;&#45;001</title>
<path fill="none" stroke="black" d="M350.38,-71.7C343.1,-60.85 333.74,-46.92 326.48,-36.1"/>
</g>
<!-- 101 -->
<g id="node9" class="node">
<title>101</title>
<polygon fill="none" stroke="black" points="414,-36 360,-36 360,0 414,0 414,-36"/>
<text text-anchor="middle" x="387" y="-14.3" font-family="Times,serif" font-size="14.00">101</text>
</g>
<!-- 001,101&#45;&#45;101 -->
<g id="edge8" class="edge">
<title>001,101&#45;&#45;101</title>
<path fill="none" stroke="black" d="M368.18,-71.7C372.05,-60.85 377.03,-46.92 380.89,-36.1"/>
</g>
<!-- 011 -->
<g id="node10" class="node">
<title>011</title>
<polygon fill="none" stroke="black" points="486,-36 432,-36 432,0 486,0 486,-36"/>
<text text-anchor="middle" x="459" y="-14.3" font-family="Times,serif" font-size="14.00">011</text>
</g>
<!-- 011,111&#45;&#45;011 -->
<g id="edge9" class="edge">
<title>011,111&#45;&#45;011</title>
<path fill="none" stroke="black" d="M459,-71.7C459,-60.85 459,-46.92 459,-36.1"/>
</g>
<!-- 111 -->
<g id="node11" class="node">
<title>111</title>
<polygon fill="none" stroke="black" points="558,-36 504,-36 504,0 558,0 558,-36"/>
<text text-anchor="middle" x="531" y="-14.3" font-family="Times,serif" font-size="14.00">111</text>
</g>
<!-- 011,111&#45;&#45;111 -->
<g id="edge10" class="edge">
<title>011,111&#45;&#45;111</title>
<path fill="none" stroke="black" d="M476.8,-71.7C487.96,-60.85 502.29,-46.92 513.41,-36.1"/>
</g>
</g>
</svg>
