<?xml version="1.0" encoding="UTF-8" standalone="no"?>
<!DOCTYPE svg PUBLIC "-//W3C//DTD SVG 1.1//EN"
 "http://www.w3.org/Graphics/SVG/1.1/DTD/svg11.dtd">
<!-- Generated by graphviz version 2.48.0 (0)
 -->
<!-- Title: tree Pages: 1 -->
<svg width="180pt" height="188pt"
 viewBox="0.00 0.00 180.49 188.00" xmlns="http://www.w3.org/2000/svg" xmlns:xlink="http://www.w3.org/1999/xlink">
<g id="graph0" class="graph" transform="scale(1 1) rotate(0) translate(4 184)">
<title>tree</title>
<polygon fill="white" stroke="transparent" points="-4,4 -4,-184 176.49,-184 176.49,4 -4,4"/>
<!-- 4(3) -->
<g id="node1" class="node">
<title>4(3)</title>
<ellipse fill="none" stroke="black" cx="67.25" cy="-162" rx="29.5" ry="18"/>
<text text-anchor="middle" x="67.25" y="-158.3" font-family="Times,serif" font-size="14.00">4(3)</text>
</g>
<!-- 3(1) -->
<g id="node2" class="node">
<title>3(1)</title>
<ellipse fill="none" stroke="black" cx="29.25" cy="-90" rx="29.5" ry="18"/>
<text text-anchor="middle" x="29.25" y="-86.3" font-family="Times,serif" font-size="14.00">3(1)</text>
</g>
<!-- 4(3)&#45;&#45;3(1) -->
<g id="edge1" class="edge">
<title>4(3)&#45;&#45;3(1)</title>
<path fill="none" stroke="black" d="M58.43,-144.76C52.38,-133.62 44.37,-118.87 38.28,-107.63"/>
</g>
<!-- 5(2) -->
<g id="node3" class="node">
<title>5(2)</title>
<ellipse fill="none" stroke="black" cx="105.25" cy="-90" rx="29.5" ry="18"/>
<text text-anchor="middle" x="105.25" y="-86.3" font-family="Times,serif" font-size="14.00">5(2)</text>
</g>
<!-- 4(3)&#45;&#45;5(2) -->
<g id="edge2" class="edge">
<title>4(3)&#45;&#45;5(2)</title>
<path fill="none" stroke="black" d="M76.06,-144.76C82.11,-133.62 90.12,-118.87 96.22,-107.63"/>
</g>
<!-- 2(3) -->
<g id="node4" class="node">
<title>2(3)</title>
<ellipse fill="none" stroke="black" cx="67.25" cy="-18" rx="29.5" ry="18"/>
<text text-anchor="middle" x="67.25" y="-14.3" font-family="Times,serif" font-size="14.00">2(3)</text>
</g>
<!-- 5(2)&#45;&#45;2(3) -->
<g id="edge3" class="edge">
<title>5(2)&#45;&#45;2(3)</title>
<path fill="none" stroke="black" d="M96.43,-72.76C90.38,-61.62 82.37,-46.87 76.28,-35.63"/>
</g>
<!-- 1(1) -->
<g id="node5" class="node">
<title>1(1)</title>
<ellipse fill="none" stroke="black" cx="143.25" cy="-18" rx="29.5" ry="18"/>
<text text-anchor="middle" x="143.25" y="-14.3" font-family="Times,serif" font-size="14.00">1(1)</text>
</g>
<!-- 5(2)&#45;&#45;1(1) -->
<g id="edge4" class="edge">
<title>5(2)&#45;&#45;1(1)</title>
<path fill="none" stroke="black" d="M114.06,-72.76C120.11,-61.62 128.12,-46.87 134.22,-35.63"/>
</g>
</g>
</svg>
